<svg xmlns="http://www.w3.org/2000/svg" viewBox="0 0 100 100" width="100" height="100">
  <defs>
    <linearGradient id="gradient" x1="0%" y1="0%" x2="100%" y2="100%">
      <stop offset="0%" style="stop-color:#22c55e;stop-opacity:1" />
      <stop offset="100%" style="stop-color:#16a34a;stop-opacity:1" />
    </linearGradient>
  </defs>
  
  <!-- Background circle -->
  <circle cx="50" cy="50" r="45" fill="url(#gradient)" stroke="#ffffff" stroke-width="2"/>
  
  <!-- Recycling symbol -->
  <g transform="translate(50,50) scale(0.8)">
    <!-- Arrow 1 -->
    <path d="M-15,-8 L-5,-18 L-10,-13 L5,-13 L8,-8 L5,-3 L-10,-3 L-5,2 Z" 
          fill="#ffffff" transform="rotate(0)"/>
    
    <!-- Arrow 2 -->
    <path d="M-15,-8 L-5,-18 L-10,-13 L5,-13 L8,-8 L5,-3 L-10,-3 L-5,2 Z" 
          fill="#ffffff" transform="rotate(120)"/>
    
    <!-- Arrow 3 -->
    <path d="M-15,-8 L-5,-18 L-10,-13 L5,-13 L8,-8 L5,-3 L-10,-3 L-5,2 Z" 
          fill="#ffffff" transform="rotate(240)"/>
  </g>
  
  <!-- AI/Tech accent -->
  <circle cx="75" cy="25" r="6" fill="#84cc16" opacity="0.8"/>
  <circle cx="25" cy="75" r="4" fill="#84cc16" opacity="0.6"/>
</svg>